<svg xmlns="http://www.w3.org/2000/svg" width="16" height="16"><path style="line-height:normal;text-indent:0;text-align:start;text-decoration-line:none;text-decoration-style:solid;text-decoration-color:#000;text-transform:none;block-progression:tb;white-space:normal;isolation:auto;mix-blend-mode:normal;solid-color:#000;solid-opacity:1" fill-rule="evenodd" d="M9.504.014a.5.5 0 0 0-.492.507v1.49H7.514a.497.497 0 0 0-.498.499v1.799c.418-.011.998.382.998.382V3.01h1.38a.5.5 0 0 0 .233 0h3.76a.5.5 0 0 0 .232 0h1.383V8h-3.691c.28.287.291.658.373 1H15.5a.5.5 0 0 0 .5-.5V2.51a.499.499 0 0 0-.5-.498h-1.496V.522a.5.5 0 0 0-.508-.508.5.5 0 0 0-.492.507v1.49h-2.992V.522a.5.5 0 0 0-.508-.507zm-.492 3.994v.998h.998v-.998h-.998zm1.996 0v.998h1v-.998h-1zm1.998 0v.998h.998v-.998h-.998zM5.492 5A5.5 5.5 0 0 0 0 10.494a5.498 5.498 0 0 0 5.492 5.492 5.5 5.5 0 0 0 5.494-5.492A5.502 5.502 0 0 0 5.492 5zm0 .998a4.489 4.489 0 0 1 4.496 4.496 4.487 4.487 0 0 1-4.496 4.494 4.485 4.485 0 0 1-4.494-4.494 4.487 4.487 0 0 1 4.494-4.496zm5.516.006v.998h1v-.998h-1zm1.998 0v.998h.998v-.998h-.998zm-7.52.658a.5.5 0 0 0-.492.508v3.324a.5.5 0 0 0 .5.5h3.012a.5.5 0 1 0 0-1H5.994V7.17a.5.5 0 0 0-.508-.508z" color="#000" enable-background="accumulate" font-family="sans-serif" font-weight="400" overflow="visible"/></svg>