<svg xmlns="http://www.w3.org/2000/svg" xmlns:xlink="http://www.w3.org/1999/xlink" version="1.1" width="256" height="256" viewBox="0 0 256 256" xml:space="preserve">

<defs>
</defs>
<g style="stroke: none; stroke-width: 0; stroke-dasharray: none; stroke-linecap: butt; stroke-linejoin: miter; stroke-miterlimit: 10; fill: none; fill-rule: nonzero; opacity: 1;" transform="translate(1.4065934065934016 1.4065934065934016) scale(2.81 2.81)" >
	<path d="M 81.476 12.337 H 8.524 C 3.836 12.337 0 16.173 0 20.861 v 48.278 c 0 4.688 3.836 8.524 8.524 8.524 h 72.952 c 4.688 0 8.524 -3.836 8.524 -8.524 V 20.861 C 90 16.173 86.164 12.337 81.476 12.337 z M 61.223 46.633 L 36.762 60.756 c -1.257 0.726 -2.829 -0.181 -2.829 -1.633 V 30.877 c 0 -1.452 1.572 -2.36 2.829 -1.634 l 24.461 14.123 C 62.481 44.092 62.481 45.907 61.223 46.633 z" style="stroke: none; stroke-width: 1; stroke-dasharray: none; stroke-linecap: butt; stroke-linejoin: miter; stroke-miterlimit: 10; fill: rgb(255,255,255); fill-rule: nonzero; opacity: 1;" transform=" matrix(1 0 0 1 0 0) " stroke-linecap="round" />
</g>
</svg>